<svg width="183" height="152" viewBox="0 0 183 152" fill="none" xmlns="http://www.w3.org/2000/svg">
<path d="M18.2714 20.8724C10.65 22.222 0.130859 29.9221 0.130859 44.0522C0.130859 65.9618 17.7553 72.3125 28.6714 73.3841C44.8271 74.9321 55.1478 63.6597 55.1478 50.6807C55.1081 19.0466 25.8927 19.5626 18.2714 20.8724ZM27.3218 61.5958C18.192 60.9607 13.0317 57.19 13.0317 45.362C13.0317 39.3289 15.1355 35.3995 22.7172 33.5737C30.2989 31.7479 42.6439 34.4866 42.6439 48.5373C42.6042 54.4513 38.1584 62.3499 27.3218 61.5958Z" fill="#FFCC2D"/>
<path d="M75.6306 151.775L83.2123 121.728L85.9909 121.927C85.9909 121.927 90.9925 151.775 90.9528 151.775H87.9757C87.9757 151.775 83.9268 127.325 83.9268 127.364H83.7283C83.7283 127.364 80.394 144.71 77.9726 151.775H75.6306Z" fill="white"/>
<path d="M89.8013 148.877L89.444 151.775H76.7417V148.877H89.8013Z" fill="white"/>
<path d="M124.217 56.5947L125.051 37.5032H122.034L120.764 68.3434L125.408 68.3037C125.408 68.3037 131.68 67.748 131.68 62.2706C131.64 58.3014 126.956 56.7535 124.217 56.5947ZM123.82 66.0413L124.178 58.8968C125.726 58.8174 128.623 58.8571 128.623 62.5881C128.623 65.2474 125.249 66.1206 123.82 66.0413Z" fill="white"/>
<path d="M114.847 45.5209L117.745 45.1636C117.745 45.1636 118.857 37.0666 113.14 37.2651C107.424 37.4635 105.638 45.1636 105.678 53.1813C105.718 61.199 106.432 68.8991 112.426 68.7403C118.42 68.5816 117.15 60.7227 117.15 60.7227L114.133 61.0402C114.133 61.0402 115.363 65.6841 112.624 65.6841C109.37 65.6841 108.377 61.5959 108.655 53.3798C108.933 45.0446 109.29 40.2022 113.14 40.2022C115.284 40.2022 114.847 45.5209 114.847 45.5209Z" fill="white"/>
<path d="M49.5505 60.5638C48.1215 56.5153 44.3108 56.4756 42.0879 57.0313L42.326 50.6807C50.5825 49.7678 51.0986 38.2176 51.0986 38.2176H48.0818C48.0818 46.9497 43.7947 48.2992 42.4451 48.2992L42.723 38.2176H39.6268L38.7932 68.3433H41.9291L42.1276 59.254C48.6375 57.1107 47.923 68.264 47.923 68.264H50.8604C50.8604 68.3434 51.3368 65.6046 49.5505 60.5638Z" fill="white"/>
<path d="M34.227 102.557C32.798 98.5089 28.9873 98.4692 26.7644 99.0249L27.0026 92.6742C35.8148 91.6819 36.1323 79.7745 36.1323 79.7745H33.1155C33.1155 88.5066 28.4713 90.2928 27.1216 90.2928L27.3995 79.8142H24.3033L23.4697 110.377H26.6056L26.8041 101.287C33.314 99.1439 32.5995 110.297 32.5995 110.297H35.5369C35.4972 110.337 35.9736 107.598 34.227 102.557Z" fill="white"/>
<path d="M144.381 60.5638C142.952 56.5153 139.141 56.4756 136.918 57.0313L137.157 50.6807C145.413 49.7678 145.929 38.2176 145.929 38.2176H142.912C142.912 46.9497 138.625 48.2992 137.276 48.2992L137.554 38.2176H134.457L133.624 68.3433H136.76L136.958 59.254C143.468 57.1107 142.754 68.264 142.754 68.264H145.691C145.691 68.3433 146.167 65.6046 144.381 60.5638Z" fill="white"/>
<path d="M55.9804 68.5022H53.1621L54.0354 38.694H57.0125L55.9804 68.5022Z" fill="white"/>
<path d="M56.021 50.8792C56.021 50.8792 65.3493 51.0379 65.3493 44.1316C65.3493 39.9243 60.2683 38.813 56.934 38.4955C55.2668 38.3764 54.0363 38.4161 54.0363 38.4161L53.9966 40.7579L56.8149 40.6785C56.8149 40.6785 62.4119 39.8847 62.4119 44.211C62.4119 46.791 59.7523 48.4977 56.1401 48.4977L56.021 50.8792Z" fill="white"/>
<path d="M115.087 110.218H112.269L113.142 80.4096L116.079 80.3699L115.087 110.218Z" fill="white"/>
<path d="M115.127 92.5948C115.127 92.5948 124.456 92.7536 124.456 85.8473C124.456 81.64 119.375 80.5286 116.04 80.2111C114.373 80.092 113.143 80.1317 113.143 80.1317L113.103 82.4735L115.921 82.3941C115.921 82.3941 121.518 81.6003 121.518 85.9267C121.518 88.5066 118.859 90.2133 115.247 90.2133L115.127 92.5948Z" fill="white"/>
<path d="M83.0922 68.3037H80.0754L81.2663 38.2176L84.3228 38.2573L83.0922 68.3037Z" fill="white"/>
<path d="M85.9111 30.0015C84.7203 30.319 83.6882 31.1129 83.6882 32.8593C83.6882 35.5583 85.8714 36.2727 87.1814 36.4712C87.6577 36.5506 87.7768 36.5109 87.7768 36.5109C88.0149 36.4712 88.2134 36.4712 88.4516 36.3918C89.5233 36.0346 90.3966 35.2805 90.3966 33.6928C90.4363 29.7634 85.9111 30.0015 85.9111 30.0015ZM87.618 34.3279C87.5783 34.3279 87.5386 34.3676 87.4989 34.3676C87.3798 34.4072 87.2607 34.4072 87.1417 34.4072C86.3478 34.3675 85.792 34.1294 85.792 33.0577C85.792 32.5417 86.1096 32.1448 86.5462 32.0655C87.618 32.0655 88.3722 32.1845 88.3722 33.415C88.3325 33.9309 87.9752 34.2088 87.618 34.3279Z" fill="white"/>
<path d="M77.2954 30.0015C76.1046 30.319 75.0725 31.1129 75.0725 32.8593C75.0725 35.5583 77.2557 36.2727 78.5657 36.4712C79.042 36.5506 79.1611 36.5109 79.1611 36.5109C79.3992 36.4712 79.5977 36.4712 79.8359 36.3918C80.9076 36.0346 81.7809 35.2805 81.7809 33.6928C81.8206 29.7634 77.2954 30.0015 77.2954 30.0015ZM79.0023 34.3279C78.9626 34.3279 78.9229 34.3676 78.8832 34.3676C78.7641 34.4072 78.645 34.4072 78.526 34.4072C77.7321 34.3675 77.1763 34.1294 77.1763 33.0577C77.1763 32.5417 77.4939 32.1448 77.9305 32.0655C79.0023 32.0655 79.7565 32.1845 79.7565 33.415C79.7565 33.9309 79.3992 34.2088 79.0023 34.3279Z" fill="white"/>
<path d="M28.1171 60.7622C26.4103 61.1988 24.9019 62.3499 24.9019 64.8504C24.9019 68.7005 28.0377 69.7325 29.9431 70.0103C30.6179 70.0897 30.7767 70.0897 30.8164 70.0897C31.1339 70.0103 31.4515 70.0103 31.7691 69.9309C33.2775 69.4149 34.5874 68.3036 34.5874 66.0412C34.5874 60.4447 28.1171 60.7622 28.1171 60.7622ZM30.6576 67.2716C30.5782 67.3113 30.5385 67.3113 30.4591 67.351C30.2607 67.3907 30.0225 67.3907 29.8637 67.3907C28.5538 67.3113 27.6408 66.9144 27.6408 65.168C27.6408 64.2947 28.1965 63.6597 28.8713 63.5406C30.6179 63.5406 31.8881 63.7391 31.8881 65.7633C31.8881 66.5968 31.2927 67.0334 30.6576 67.2716Z" fill="white"/>
<path d="M33.0394 38.2176L33.1982 45.5605C33.1982 47.8229 33.1585 49.3312 32.9997 50.9982C32.7616 53.8957 32.4043 57.2694 29.7845 57.2694C27.1646 57.2694 26.8073 53.0622 26.5295 50.9982C26.4104 50.1647 26.2516 48.9343 26.2516 45.4811C26.2516 42.028 26.5295 38.2176 26.5295 38.2176H23.5524C23.5524 38.2176 23.3142 42.8615 23.3142 45.4414C23.3142 47.9817 23.473 49.7678 23.5524 50.9585C23.989 56.4756 25.2196 59.5319 29.8241 59.5319C34.0318 59.5319 35.5799 56.555 36.0562 50.9188C36.215 49.0136 36.215 47.6244 36.215 45.5208L36.0165 38.2573L33.0394 38.2176Z" fill="white"/>
<path d="M44.4301 102.359C42.7232 102.795 41.2148 103.946 41.2148 106.447C41.2148 110.297 44.3507 111.329 46.2561 111.607C46.9309 111.686 47.0897 111.686 47.1294 111.686C47.4469 111.607 47.7645 111.607 48.082 111.527C49.5904 111.011 50.9004 109.9 50.9004 107.638C50.94 102.041 44.4301 102.359 44.4301 102.359ZM46.9706 108.868C46.8912 108.908 46.8515 108.908 46.7721 108.948C46.5736 108.987 46.3355 108.987 46.1767 108.987C44.8668 108.908 43.9538 108.511 43.9538 106.765C43.9538 105.891 44.5095 105.256 45.1843 105.137C46.9309 105.137 48.2011 105.336 48.2011 107.36C48.2011 108.193 47.6454 108.63 46.9706 108.868Z" fill="white"/>
<path d="M49.3524 79.8141L49.5112 87.157C49.5112 89.4194 49.4715 90.9277 49.3127 92.5947C49.0745 95.4922 48.7173 98.8659 46.0974 98.8659C43.4776 98.8659 43.1203 94.6587 42.8425 92.5947C42.7234 91.7612 42.5646 90.5308 42.5646 87.0776C42.5646 83.6641 42.8425 79.8141 42.8425 79.8141H39.8654C39.8654 79.8141 39.6272 84.458 39.6272 87.0379C39.6272 89.5782 39.786 91.3643 39.8654 92.555C40.302 98.0721 41.5325 101.128 46.1371 101.128C50.3448 101.128 51.8929 98.1515 52.3692 92.5153C52.528 90.6101 52.528 89.2209 52.528 87.1173L52.3295 79.8538L49.3524 79.8141Z" fill="white"/>
<path d="M100.994 102.597C99.2872 103.034 97.7788 104.185 97.7788 106.685C97.7788 110.535 100.915 111.567 102.82 111.845C103.495 111.924 103.654 111.924 103.693 111.924C104.011 111.845 104.328 111.845 104.646 111.766C106.154 111.25 107.464 110.138 107.464 107.876C107.504 102.279 100.994 102.597 100.994 102.597ZM103.574 109.067C103.495 109.106 103.455 109.106 103.376 109.146C103.177 109.186 102.939 109.186 102.78 109.186C101.47 109.106 100.557 108.709 100.557 106.963C100.557 106.09 101.113 105.455 101.788 105.336C103.535 105.336 104.805 105.534 104.805 107.558C104.765 108.432 104.209 108.828 103.574 109.067Z" fill="white"/>
<path d="M105.955 80.0522L106.114 87.3952C106.114 89.6576 106.074 91.1658 105.916 92.8329C105.677 95.7303 105.32 99.1041 102.7 99.1041C100.08 99.1041 99.7231 94.8968 99.4452 92.8329C99.3262 91.9994 99.1674 90.7689 99.1674 87.3158C99.1674 83.8626 99.4452 80.0522 99.4452 80.0522H96.4681C96.4681 80.0522 96.23 84.6961 96.23 87.2761C96.23 89.8163 96.3887 91.6024 96.4681 92.7932C96.9048 98.3103 98.1353 101.367 102.74 101.367C106.948 101.367 108.496 98.3897 108.972 92.7535C109.131 90.8483 109.131 89.4591 109.131 87.3555L108.932 80.0919L105.955 80.0522Z" fill="white"/>
<path d="M161.011 38.2573L152.516 61.6355L153.429 38.2573H150.452L149.42 68.3037H152.477L161.209 43.576L160.614 68.3037H163.551L163.988 38.2573H161.011Z" fill="white"/>
<path d="M155.418 80.2111L146.923 103.55L147.836 80.1714H144.899L143.827 110.257H146.883L155.656 85.5297L155.06 110.218L157.958 110.257L158.395 80.2111H155.418Z" fill="white"/>
<path d="M73.2486 80.092L70.4302 79.8936L69.1997 109.702L72.1371 109.94L73.2486 80.092Z" fill="white"/>
<path d="M72.0187 97.6753C72.0187 97.6753 81.3469 98.1913 80.8309 105.058C80.5133 109.265 75.3927 110.019 72.0584 110.059C70.3912 110.099 69.1606 109.94 69.1606 109.94L69.2797 107.598L72.0981 107.876C72.0981 107.876 77.6156 109.067 77.9332 104.74C78.1316 102.16 75.5515 100.255 71.979 100.017L72.0187 97.6753Z" fill="white"/>
<path d="M87.6979 110.059H84.959L85.6735 80.0522H88.4521L87.6979 110.059Z" fill="white"/>
<path d="M80.4726 80.0522L93.1352 79.8141V82.1162L80.4329 82.3146L80.4726 80.0522Z" fill="white"/>
<path d="M55.7829 135.739C55.7829 133.755 55.7035 132.246 55.5844 131.095V130.778C55.5844 130.619 55.5447 130.421 55.5447 130.262C55.1081 124.785 53.8776 121.768 49.3524 121.768C45.1844 121.768 43.6363 124.705 43.16 130.302C43.0012 132.207 43.0012 133.556 43.0012 135.66V136.374C43.0012 136.93 43.0012 137.446 43.0012 137.883C43.0012 139.867 43.0806 141.376 43.1997 142.527V142.844C43.1997 143.003 43.2394 143.201 43.2394 143.36C43.676 148.837 44.9066 151.854 49.4318 151.854C53.5997 151.854 55.1478 148.917 55.6241 143.32C55.7829 141.415 55.7829 140.066 55.7829 137.962V137.248C55.7829 136.692 55.7829 136.176 55.7829 135.739ZM49.3921 148.877C46.8119 148.877 46.415 145.464 46.1768 143.4C46.1768 143.32 45.9783 139.947 45.9783 136.613C45.9783 133.437 46.1371 130.341 46.1371 130.262C46.3753 127.404 46.7325 124.784 49.3127 124.784C51.8928 124.784 52.2898 128.198 52.528 130.262C52.528 130.341 52.7264 133.556 52.7264 136.771C52.7264 140.026 52.5676 143.32 52.5676 143.4C52.3295 146.258 51.9722 148.877 49.3921 148.877Z" fill="white"/>
<path d="M67.5328 56.4757L74.0825 55.92L74.4397 58.1427L67.2947 58.4602L67.5328 56.4757Z" fill="white"/>
<path d="M77.2581 68.5021L73.2489 38.297L70.1528 38.0192L64.3176 68.4624H66.8581L71.1451 44.4095L71.423 44.3698L74.0428 68.3831L77.2581 68.5021Z" fill="white"/>
<path d="M32.3638 151.933H29.4661L29.863 121.808H32.8798L32.3638 151.933Z" fill="white"/>
<path d="M25.4559 137.049C25.4559 135.461 24.7414 123.951 31.1719 125.935L31.1323 123.673C28.9093 123.157 25.5353 123.356 23.7887 127.245C22.32 130.5 22.3597 134.945 22.3597 137.089C22.3597 139.232 22.3994 143.082 23.7887 146.178C25.5353 150.068 28.9093 150.266 31.1323 149.75L31.1719 147.488C25.0193 149.353 25.4559 138.637 25.4559 137.049Z" fill="white"/>
<path d="M36.8901 137.049C36.8901 135.461 37.6046 123.951 31.1741 125.935L31.2138 123.673C33.4367 123.157 36.8107 123.356 38.5573 127.245C40.026 130.5 39.9863 134.945 39.9863 137.089C39.9863 139.232 39.9466 143.082 38.5573 146.178C36.8107 150.068 33.4367 150.266 31.2138 149.75L31.1741 147.488C37.3268 149.353 36.8901 138.637 36.8901 137.049Z" fill="white"/>
<path d="M66.2614 110.297L62.2919 79.6951L59.1957 79.4172L53.3606 110.297H55.9011L60.069 85.5297L60.3469 85.49L63.0858 110.297H66.2614Z" fill="white"/>
<path d="M99.9631 38.2176L99.328 55.92L91.9845 50.6807L92.302 38.1779H89.2456L88.4517 68.5021H91.4685L91.8654 54.0545L99.0898 59.3731L98.7326 68.5021H101.789L102.94 38.2573L99.9631 38.2176Z" fill="white"/>
<path d="M70.2705 121.133L69.6354 138.835L62.3316 133.596L62.6094 121.093H59.5529L58.759 151.417H61.7758L62.1728 136.97L69.3972 142.288L69.04 151.417H72.0965L73.2476 121.173L70.2705 121.133Z" fill="white"/>
<path d="M137.554 80.1714L136.919 97.9134L129.615 92.6742L129.893 80.1714H126.877L126.043 110.456H129.06L129.457 96.0479L136.721 101.327L136.364 110.456H139.38L140.571 80.2508L137.554 80.1714Z" fill="white"/>
<path d="M178.916 38.2573L170.422 61.6355L171.335 38.2573H168.397L167.325 68.3037H170.382L179.154 43.576L178.559 68.3037H181.457L181.893 38.2573H178.916Z" fill="white"/>
<path d="M177.13 32.383C177.05 33.7325 176.812 35.0423 175.304 35.0423C173.517 35.0423 173.24 33.7722 173.2 32.3433L171.215 32.5815C171.414 35.3202 172.525 37.1857 175.304 37.1857C178.479 37.1857 179.114 34.7645 179.233 32.6212L177.13 32.383Z" fill="white"/>
<path d="M173.199 80.2111L164.704 103.589L165.657 80.2111H162.679L161.608 110.257H164.704L173.437 85.5297L172.841 110.218L175.739 110.257L176.176 80.2111H173.199Z" fill="white"/>
<path d="M171.454 74.297C171.374 75.6465 171.136 76.9563 169.628 76.9563C167.842 76.9563 167.564 75.6862 167.524 74.2573L165.539 74.4955C165.738 77.2342 166.849 79.0997 169.628 79.0997C172.803 79.0997 173.439 76.6785 173.558 74.5352L171.454 74.297Z" fill="white"/>
<path d="M146.407 132.405L111.754 131.73L110.92 121.569L148.59 123.594L146.407 132.405Z" fill="#A3D2D9"/>
<path d="M138.706 148.957L104.092 148.282L103.258 138.161L140.889 140.145L138.706 148.957Z" fill="#A3D2D9"/>
</svg>
