<svg width="307" height="67" viewBox="0 0 307 67" fill="none" xmlns="http://www.w3.org/2000/svg">
<g clip-path="url(#clip0)">
<path d="M83.9919 0H65.1357H59.0388V6.15436V28.9741H65.1357V6.15436H83.9919V0Z" fill="white"/>
<path fill-rule="evenodd" clip-rule="evenodd" d="M172.576 0.402222H195.517V6.1336H178.274V11.865H195.517V17.5963H178.274V23.3489H195.517V29.038H178.274V29.0591H172.576V29.038V0.402222Z" fill="white"/>
<path fill-rule="evenodd" clip-rule="evenodd" d="M245.719 0.402588H268.682V6.13396H251.418V11.8653H268.682V17.5967H251.418V23.3492H268.682V29.0383H251.418V29.0595H245.719V29.0383V0.402588Z" fill="white"/>
<path fill-rule="evenodd" clip-rule="evenodd" d="M225.103 0.40217H208.342V29.0802H214.04V20.4514H225.166C227.818 20.4627 230.367 19.4113 232.252 17.5279C234.137 15.6446 235.206 13.0831 235.222 10.4056C235.211 9.07725 234.941 7.76411 234.425 6.54162C233.91 5.31912 233.161 4.21134 232.221 3.28187C231.281 2.3524 230.168 1.61954 228.946 1.12536C227.725 0.63118 226.419 0.385414 225.103 0.40217ZM225.103 14.72H213.873V6.13355H225.103C226.231 6.13355 227.312 6.58587 228.11 7.39101C228.908 8.19615 229.356 9.28815 229.356 10.4268C229.356 11.5654 228.908 12.6574 228.11 13.4626C227.312 14.2677 226.231 14.72 225.103 14.72Z" fill="white"/>
<path fill-rule="evenodd" clip-rule="evenodd" d="M306.81 0.401568H290.049C288.737 0.39321 287.435 0.645877 286.22 1.14514C285.004 1.64441 283.898 2.3805 282.964 3.31137C282.03 4.24225 281.287 5.34969 280.777 6.57045C280.267 7.79122 280.001 9.1014 279.992 10.4262C279.994 12.121 280.424 13.7875 281.241 15.2678C282.059 16.7481 283.237 17.9934 284.665 18.8858L281.983 29.0796H287.64L289.902 20.4508H301.195V29.0796H306.873V0.401568H306.81ZM301.153 14.804H289.923C288.795 14.804 287.714 14.3517 286.916 13.5466C286.118 12.7414 285.67 11.6494 285.67 10.5108C285.67 9.37215 286.118 8.28014 286.916 7.475C287.714 6.66986 288.795 6.21754 289.923 6.21754H301.153V14.804Z" fill="white"/>
<path fill-rule="evenodd" clip-rule="evenodd" d="M27.0264 0.401924H10.2654C8.94944 0.387973 7.64374 0.63651 6.42323 1.13327C5.20271 1.63002 4.09141 2.36522 3.15311 3.29665C2.21481 4.22808 1.46799 5.33741 0.955516 6.56096C0.443044 7.7845 0.175013 9.09816 0.166809 10.4265C0.16831 12.1214 0.598184 13.7878 1.41576 15.2681C2.23333 16.7485 3.41156 17.9937 4.83896 18.8861L2.09433 29.08H7.835L10.0977 20.4512H21.3696V29.08H27.0683V0.401924H27.0264ZM21.3696 14.8044H10.1396C9.01165 14.8044 7.92985 14.3521 7.13224 13.5469C6.33462 12.7418 5.88653 11.6498 5.88653 10.5111C5.88653 9.3725 6.33462 8.2805 7.13224 7.47536C7.92985 6.67022 9.01165 6.2179 10.1396 6.2179H21.3696V14.8044Z" fill="white"/>
<path fill-rule="evenodd" clip-rule="evenodd" d="M114.687 29.2699H121.517L112.215 0.211182H102.661L93.4427 29.2699H100.189L102.012 23.5597H112.948L114.687 29.2699ZM103.751 17.8071L107.396 6.34439L111.042 17.8071H103.751Z" fill="white"/>
<path fill-rule="evenodd" clip-rule="evenodd" d="M160.548 29.2701L151.33 0.211426H150.114H148.459H144.562H143.997H141.692L132.473 29.2701H139.22L146.511 6.32349L153.802 29.2701H160.548Z" fill="white"/>
<path d="M6.70443 46.0837H9.05098L15.6926 61.9666H13.2412L11.6489 57.9483H3.9598L2.3675 61.9666H0L6.70443 46.0837ZM7.7939 48.1986L4.67215 56.0872H10.9576L7.7939 48.1986Z" fill="#29B3A9"/>
<path d="M20.9513 50.3982V52.0478C21.3886 51.4541 21.9622 50.9764 22.6227 50.6559C23.2833 50.3354 24.0111 50.1817 24.7435 50.2079C25.4271 50.1716 26.11 50.2916 26.7412 50.5589C27.3725 50.8262 27.9358 51.234 28.3891 51.7517C29.3355 52.9906 29.8245 54.5238 29.7718 56.0873C29.8083 57.6451 29.3453 59.1732 28.4519 60.444C28.0216 60.9879 27.4722 61.4237 26.847 61.7172C26.2217 62.0108 25.5376 62.1541 24.8483 62.1359C23.9761 62.1608 23.1117 61.9645 22.3341 61.5649C21.815 61.3069 21.3684 60.9215 21.0351 60.444V66.7887H18.8562V50.3982H20.9513ZM21.8732 59.2173C22.1516 59.6046 22.5171 59.9196 22.9396 60.1365C23.3621 60.3534 23.8295 60.466 24.3035 60.4651C24.7007 60.4593 25.0922 60.3698 25.453 60.2022C25.8138 60.0347 26.1359 59.7929 26.3987 59.4923C27.1498 58.5162 27.529 57.3005 27.4672 56.0661C27.5683 54.9291 27.2554 53.7937 26.5872 52.8726C26.3301 52.5623 26.01 52.3111 25.6486 52.136C25.2872 51.9609 24.8929 51.8659 24.4921 51.8575C23.9822 51.8462 23.4778 51.9666 23.0268 52.2072C22.5759 52.4477 22.1932 52.8006 21.9151 53.2322C21.2766 54.0835 20.9375 55.1254 20.9513 56.193C20.9401 57.2733 21.2623 58.3303 21.8732 59.2173Z" fill="#29B3A9"/>
<path d="M42.2189 50.3984V52.1115H38.2381V61.9669H36.143V52.1115H32.1622V50.3984H42.2189Z" fill="#29B3A9"/>
<path d="M44.4162 54.9873H50.2826V56.7215H44.4162V54.9873Z" fill="#29B3A9"/>
<path d="M63.5871 50.3982V60.2325H65.3261V65.2236H63.231V61.9667H53.9705V50.3982H56.0656V60.2325H61.4501V50.3982H63.5871Z" fill="#29B3A9"/>
<path d="M69.9961 56.6583C70.0016 57.6006 70.3438 58.5093 70.9598 59.2173C71.3276 59.6105 71.7732 59.921 72.2678 60.1287C72.7623 60.3364 73.2947 60.4366 73.8302 60.4228C75.0731 60.3635 76.273 59.9451 77.2871 59.2173V61.3322H76.9729C75.9368 61.7878 74.8131 62.0045 73.6835 61.9667C72.8654 62.053 72.0384 61.9659 71.2555 61.711C70.4726 61.4561 69.751 61.0389 69.1371 60.4862C68.1124 59.2778 67.5873 57.718 67.6705 56.1296C67.6204 55.2787 67.7516 54.427 68.0552 53.6317C68.3588 52.8364 68.8277 52.116 69.4304 51.5191C70.4245 50.6384 71.7119 50.1699 73.034 50.2078C73.7478 50.1653 74.4616 50.2902 75.1195 50.5727C75.7774 50.8552 76.3616 51.2877 76.8262 51.8363C77.6877 53.0717 78.1289 54.556 78.0833 56.0661V56.6794L69.9961 56.6583ZM75.9253 54.9875C75.9566 54.2281 75.7272 53.481 75.2758 52.8726C75.007 52.5298 74.6622 52.2555 74.2692 52.0719C73.8762 51.8882 73.4459 51.8003 73.0131 51.8152C72.5645 51.8075 72.1208 51.9092 71.7196 52.1117C71.3183 52.3142 70.9715 52.6115 70.7084 52.9784C70.3081 53.5695 70.063 54.2535 69.9961 54.9664L75.9253 54.9875Z" fill="#29B3A9"/>
<path d="M84.2461 55.0933H90.0915V50.3982H92.1867V61.9667H90.0915V56.8063H84.2461V61.9667H82.151V50.3982H84.2461V55.0933Z" fill="#29B3A9"/>
<path d="M105.406 50.3982V52.1113H101.425V61.9667H99.3303V52.1113H95.3286V50.3982H105.406Z" fill="#29B3A9"/>
<path d="M110.581 50.3978V52.0474C111.026 51.4968 111.582 51.0478 112.211 50.7304C112.841 50.413 113.531 50.2344 114.234 50.2064C114.937 50.1784 115.638 50.3017 116.291 50.568C116.944 50.8344 117.533 51.2377 118.019 51.7513C118.983 52.9821 119.48 54.5192 119.423 56.0869C119.459 57.6447 118.996 59.1728 118.103 60.4436C117.675 60.9846 117.129 61.4187 116.507 61.7121C115.886 62.0055 115.206 62.1504 114.52 62.1355C113.641 62.1612 112.77 61.9649 111.985 61.5645C111.466 61.3065 111.019 60.9211 110.686 60.4436V66.7883H108.591V50.3978H110.581ZM111.545 59.2169C111.825 59.6071 112.194 59.9239 112.621 60.1409C113.047 60.358 113.519 60.469 113.996 60.4647C114.393 60.4551 114.783 60.3638 115.143 60.1966C115.504 60.0293 115.826 59.7895 116.091 59.4919C116.835 58.5129 117.207 57.2975 117.139 56.0657C117.25 54.9277 116.936 53.7889 116.259 52.8722C115.99 52.5482 115.654 52.2889 115.273 52.1132C114.892 51.9376 114.478 51.8501 114.059 51.8571C113.551 51.8412 113.048 51.9598 112.6 52.2009C112.151 52.4421 111.773 52.7975 111.503 53.2318C110.924 54.0822 110.63 55.0977 110.665 56.1292C110.628 57.2264 110.936 58.3072 111.545 59.2169Z" fill="#29B3A9"/>
<path d="M130.085 46.0839H141.776V61.9667H139.534V48.0719H132.327V61.9667H130.085V46.0839Z" fill="#29B3A9"/>
<path d="M147.327 51.2022C148.539 50.5292 149.904 50.1866 151.287 50.2082C151.918 50.1161 152.561 50.179 153.163 50.3916C153.764 50.6043 154.306 50.9603 154.742 51.4295C155.178 51.8987 155.496 52.4671 155.667 53.0866C155.839 53.7061 155.86 54.3583 155.729 54.9878V59.6829C155.678 60.4646 155.678 61.2488 155.729 62.0305H153.739V60.4654C153.292 61.0312 152.72 61.483 152.068 61.7843C151.417 62.0855 150.704 62.2278 149.988 62.1996C149.03 62.1791 148.098 61.8779 147.307 61.3325C146.902 61.0265 146.576 60.6264 146.357 60.1661C146.138 59.7059 146.033 59.1992 146.049 58.6889C146.043 58.0574 146.207 57.4361 146.525 56.8919C146.842 56.3478 147.301 55.9015 147.851 55.6012C149.21 54.9815 150.702 54.7195 152.188 54.8398H153.634V54.2053C153.655 53.8856 153.603 53.5652 153.483 53.2684C153.364 52.9717 153.179 52.7063 152.942 52.4923C152.334 52.0516 151.595 51.8351 150.847 51.8789C149.624 51.8805 148.433 52.281 147.453 53.021L147.327 51.2022ZM153.613 56.4471H152.398C151.263 56.3277 150.119 56.5484 149.108 57.0816C148.848 57.2432 148.633 57.4706 148.487 57.7414C148.34 58.0121 148.265 58.3168 148.27 58.6255C148.261 58.88 148.312 59.1332 148.417 59.3646C148.523 59.596 148.68 59.7992 148.878 59.9579C149.362 60.3014 149.942 60.4792 150.533 60.4654C151.389 60.4766 152.216 60.1504 152.838 59.556C153.356 58.9783 153.634 58.2206 153.613 57.4411V56.4471Z" fill="#29B3A9"/>
<path d="M164.993 50.3975C166.07 50.3211 167.145 50.5559 168.094 51.0743C168.471 51.3108 168.78 51.6415 168.993 52.0342C169.206 52.4269 169.315 52.8685 169.309 53.3161C169.308 53.9371 169.101 54.5399 168.723 55.0292C168.37 55.4835 167.875 55.804 167.319 55.9386C167.937 56.0169 168.519 56.274 168.995 56.6788C169.262 56.9231 169.473 57.2245 169.61 57.5611C169.748 57.8976 169.81 58.2609 169.791 58.6245C169.851 59.1536 169.76 59.6888 169.53 60.168C169.3 60.6472 168.94 61.0507 168.492 61.3316C167.581 61.825 166.548 62.0451 165.517 61.966H160.489V50.3975H164.993ZM162.542 55.1561H164.637C165.268 55.2101 165.903 55.1009 166.481 54.8388C166.684 54.7119 166.853 54.5345 166.969 54.3235C167.086 54.1125 167.147 53.8749 167.147 53.6333C167.147 53.3918 167.086 53.1542 166.969 52.9432C166.853 52.7322 166.684 52.5548 166.481 52.4278C165.982 52.1755 165.424 52.0658 164.868 52.1106H162.542V55.1561ZM162.542 60.2318H165.224C165.887 60.2768 166.543 60.0735 167.067 59.6608C167.219 59.5224 167.339 59.3523 167.418 59.1623C167.498 58.9724 167.536 58.7672 167.528 58.5611C167.538 58.268 167.469 57.9777 167.329 57.7209C167.189 57.464 166.983 57.2501 166.732 57.1018C166.081 56.7861 165.355 56.6616 164.637 56.7422H162.542V60.2318Z" fill="#29B3A9"/>
<path d="M182.696 50.3982V61.9667H180.601V52.1113H176.872V55.1144C177.004 56.9262 176.806 58.7471 176.285 60.4863C176.111 61.0153 175.762 61.4679 175.297 61.7682C174.831 62.0685 174.278 62.1983 173.729 62.1359C173.291 62.129 172.855 62.0722 172.43 61.9667L172.703 60.2536C172.915 60.3111 173.133 60.3465 173.352 60.3594C174.379 60.3594 174.567 59.45 174.651 58.8789C174.818 57.6315 174.888 56.3728 174.861 55.1144V50.3982H182.696Z" fill="#29B3A9"/>
<path d="M187.934 51.2018C189.146 50.5289 190.511 50.1863 191.894 50.2078C192.525 50.1157 193.168 50.1786 193.769 50.3913C194.371 50.6039 194.913 50.9599 195.349 51.4291C195.785 51.8983 196.102 52.4668 196.274 53.0863C196.446 53.7058 196.467 54.358 196.335 54.9875V59.6825C196.319 60.4665 196.354 61.2508 196.44 62.0301H194.345V60.4651C193.899 61.0308 193.326 61.4826 192.675 61.7839C192.023 62.0852 191.311 62.2275 190.595 62.1993C189.637 62.1787 188.705 61.8775 187.913 61.3322C187.508 61.0261 187.183 60.626 186.964 60.1658C186.745 59.7055 186.639 59.1988 186.656 58.6885C186.659 58.0461 186.839 57.4173 187.176 56.8721C187.513 56.3269 187.993 55.8867 188.563 55.6008C189.877 55.0054 191.315 54.744 192.753 54.8394H194.198V54.205C194.219 53.8852 194.168 53.5648 194.048 53.2681C193.928 52.9713 193.743 52.7059 193.507 52.4919C192.899 52.0513 192.159 51.8348 191.412 51.8786C190.188 51.8801 188.998 52.2807 188.018 53.0206L187.934 51.2018ZM194.219 56.4468H193.004C191.87 56.3274 190.726 56.5481 189.715 57.0812C189.454 57.2429 189.24 57.4703 189.093 57.741C188.946 58.0117 188.872 58.3164 188.877 58.6251C188.868 58.8797 188.918 59.1328 189.024 59.3642C189.129 59.5957 189.287 59.7988 189.484 59.9575C189.968 60.301 190.548 60.4789 191.14 60.4651C191.996 60.4763 192.823 60.15 193.444 59.5557C193.963 58.9779 194.241 58.2202 194.219 57.4408V56.4468Z" fill="#29B3A9"/>
<path d="M207.418 46.0837H215.799V48.0717H209.702V61.9666H207.418V46.0837Z" fill="#29B3A9"/>
<path d="M218.081 65.097C218.414 65.1987 218.759 65.2556 219.107 65.2662C219.374 65.273 219.64 65.2217 219.886 65.1159C220.132 65.0101 220.352 64.8522 220.532 64.6529C220.97 64.156 221.286 63.5618 221.454 62.9186L221.601 62.4111L221.328 61.544L217.306 50.3984H219.61L222.774 59.8943L225.854 50.3984H227.949L223.759 62.3899C223.421 63.5327 222.912 64.6168 222.25 65.6046C221.906 66.0606 221.457 66.4257 220.943 66.6687C220.428 66.9118 219.863 67.0256 219.296 67.0004C218.886 67.0156 218.476 66.9657 218.081 66.8523V65.097Z" fill="#29B3A9"/>
<path d="M240.186 50.3982V60.2325H241.799V65.2236H239.704V61.9667H231.533V65.2236H229.438V60.2325H230.59C231.931 58.3925 232.141 56.5314 232.245 52.3439V50.3982H240.186ZM238.091 60.2325V52.1113H234.32V53.0207C234.32 56.3411 234.047 58.3714 232.665 60.2325H238.091Z" fill="#29B3A9"/>
<path d="M247.225 47.7967H244.858V45.3857H247.225V47.7967ZM244.983 50.3981H247.078V61.9666H244.983V50.3981Z" fill="#29B3A9"/>
<path d="M257.43 61.9669L253.931 52.5556V61.9669H251.836V50.3984H255.062L258.331 58.6677H258.457L261.704 50.3984H264.952V61.9669H262.856V52.5556L259.337 61.9669H257.43Z" fill="#29B3A9"/>
<path d="M279.028 52.0258C279.99 53.1892 280.516 54.6561 280.516 56.171C280.516 57.6859 279.99 59.1529 279.028 60.3162C278.46 60.893 277.784 61.3507 277.04 61.663C276.296 61.9753 275.498 62.1361 274.692 62.1361C273.885 62.1361 273.087 61.9753 272.343 61.663C271.599 61.3507 270.923 60.893 270.355 60.3162C269.393 59.1529 268.867 57.6859 268.867 56.171C268.867 54.6561 269.393 53.1892 270.355 52.0258C270.923 51.449 271.599 50.9913 272.343 50.679C273.087 50.3667 273.885 50.2059 274.692 50.2059C275.498 50.2059 276.296 50.3667 277.04 50.679C277.784 50.9913 278.46 51.449 279.028 52.0258ZM271.989 53.2948C271.428 54.1474 271.13 55.1478 271.13 56.171C271.13 57.1942 271.428 58.1947 271.989 59.0473C272.303 59.4718 272.711 59.8165 273.18 60.0539C273.649 60.2913 274.167 60.4149 274.692 60.4149C275.216 60.4149 275.734 60.2913 276.203 60.0539C276.672 59.8165 277.08 59.4718 277.394 59.0473C277.968 58.1999 278.275 57.1974 278.275 56.171C278.275 55.1446 277.968 54.1421 277.394 53.2948C277.081 52.869 276.673 52.5229 276.204 52.2843C275.735 52.0456 275.217 51.9209 274.692 51.9201C274.167 51.9273 273.651 52.0548 273.183 52.293C272.715 52.5312 272.307 52.8737 271.989 53.2948Z" fill="#29B3A9"/>
<path d="M289.129 50.3979C290.205 50.3215 291.28 50.5563 292.229 51.0747C292.606 51.3112 292.916 51.6418 293.128 52.0346C293.341 52.4273 293.45 52.8688 293.445 53.3165C293.453 53.9391 293.246 54.5453 292.858 55.0295C292.505 55.4838 292.01 55.8043 291.454 55.9389C292.072 56.0173 292.654 56.2743 293.13 56.6792C293.398 56.9235 293.608 57.2249 293.746 57.5614C293.883 57.898 293.945 58.2612 293.926 58.6249C293.95 59.1229 293.843 59.6185 293.614 60.0607C293.386 60.5029 293.045 60.876 292.627 61.1416C291.716 61.682 290.666 61.9395 289.61 61.8818H284.582V50.3979H289.129ZM286.677 55.1564H288.772C289.404 55.2124 290.039 55.1031 290.616 54.8392C290.82 54.7122 290.988 54.5348 291.104 54.3238C291.221 54.1128 291.282 53.8753 291.282 53.6337C291.282 53.3921 291.221 53.1546 291.104 52.9436C290.988 52.7326 290.82 52.5552 290.616 52.4282C290.118 52.1738 289.559 52.064 289.003 52.111H286.656L286.677 55.1564ZM286.677 60.2322H289.359C290.022 60.2792 290.68 60.0757 291.203 59.6612C291.358 59.5247 291.482 59.3555 291.565 59.1655C291.648 58.9754 291.689 58.7692 291.685 58.5614C291.69 58.2667 291.617 57.9759 291.473 57.7192C291.33 57.4626 291.12 57.2495 290.868 57.1021C290.248 56.8037 289.561 56.6795 288.877 56.7426H286.677V60.2322Z" fill="#29B3A9"/>
<path d="M298.515 51.2018C299.727 50.5289 301.092 50.1863 302.475 50.2078C303.704 50.1268 304.916 50.537 305.848 51.3499C306.26 51.8395 306.567 52.4096 306.751 53.0246C306.935 53.6395 306.991 54.2861 306.917 54.924V59.6191C306.875 60.4011 306.875 61.1847 306.917 61.9667H304.947V60.4016C304.501 60.9674 303.928 61.4192 303.277 61.7205C302.625 62.0217 301.913 62.164 301.197 62.1359C300.223 62.1503 299.267 61.8704 298.452 61.3322C298.047 61.0262 297.722 60.626 297.503 60.1658C297.284 59.7056 297.178 59.1988 297.195 58.6886C297.188 58.0571 297.353 57.4357 297.67 56.8916C297.988 56.3474 298.447 55.9011 298.997 55.6008C300.354 54.9757 301.847 54.7135 303.334 54.8394H304.759V54.205C304.782 53.8869 304.734 53.5676 304.618 53.2709C304.502 52.9742 304.321 52.7079 304.088 52.4919C303.479 52.0529 302.74 51.8365 301.993 51.8786C300.77 51.8861 299.581 52.286 298.599 53.0206L298.515 51.2018ZM304.8 56.4468H303.585C302.458 56.3291 301.321 56.5498 300.317 57.0812C300.056 57.2429 299.842 57.4703 299.695 57.741C299.548 58.0117 299.474 58.3165 299.479 58.6251C299.47 58.8797 299.52 59.1329 299.626 59.3643C299.731 59.5957 299.889 59.7989 300.086 59.9575C300.561 60.3036 301.135 60.482 301.721 60.4651C302.584 60.4819 303.419 60.1552 304.046 59.5557C304.557 58.9747 304.827 58.2174 304.8 57.4408V56.4468Z" fill="#29B3A9"/>
</g>
<defs>
<clipPath id="clip0">
<rect width="307" height="67" fill="white"/>
</clipPath>
</defs>
</svg>
