<svg width="370" height="168" viewBox="0 0 370 168" fill="none" xmlns="http://www.w3.org/2000/svg">
<path d="M122.444 110.611C122.228 105.186 122.114 99.7724 122.103 94.3698C121.797 85.2073 121.564 76.078 121.405 66.9817C121.246 57.8854 121.246 48.8277 121.405 39.8086C115.729 39.8086 110.052 39.8472 104.376 39.9244C98.6995 40.0015 93.0232 40.0346 87.3468 40.0236C87.1992 43.3313 87.1198 46.5674 87.1084 49.7318C87.1084 52.8742 87.1084 56.1157 86.887 59.4235C67.3036 61.1931 54.7703 62.847 34.4887 64.1536C34.6419 60.5481 34.7952 57.0254 34.9655 53.5523C35.1358 50.0791 35.3401 46.6391 35.6466 43.1825C29.9703 42.8848 24.2939 42.4713 18.6176 41.9421C12.9299 41.3467 7.32735 41.0159 1.74183 40.7017C0.782528 47.618 0.214042 54.5802 0.0389235 61.557C-0.051898 68.5584 0.0162181 75.5487 0.243272 82.528C0.470326 89.5074 0.822259 96.4977 1.29907 103.499C1.76453 110.5 2.15052 117.452 2.45705 124.354C3.1155 130.077 3.44473 135.755 3.44473 141.389C3.52988 147.012 3.80234 152.619 4.26213 158.176C4.76465 158.863 5.51044 159.346 6.3567 159.532C11.4516 159.085 16.5695 158.936 21.6828 159.086C26.7915 159.24 31.9797 159.312 37.2474 159.301C38.3226 149.111 38.4366 138.848 37.588 128.638C36.7365 118.417 36.1689 108.119 35.885 97.7436C45.6427 97.1483 48.0778 96.4371 57.9036 95.6102C67.7294 94.7832 77.6062 93.9563 87.5001 93.2451C87.1906 99.7038 87.2304 106.174 87.6193 112.628C88.0053 119.101 88.431 125.49 88.8964 131.797C89.0554 136.306 89.1349 140.777 89.1349 145.21C89.1349 149.659 89.2881 154.041 89.5946 158.441C95.1631 158.738 100.698 158.937 106.198 159.003C111.698 159.069 117.233 159.201 122.801 159.334C123.413 153.947 123.686 148.529 123.619 143.109C123.619 137.701 123.38 132.276 123.142 126.868C122.903 121.46 122.648 116.019 122.444 110.611ZM110.949 146.004C110.946 146.775 110.79 147.539 110.489 148.253C110.389 148.569 110.224 148.862 110.005 149.115C109.785 149.368 109.516 149.575 109.212 149.725C108.667 149.956 108.395 149.543 108.395 148.484C108.088 136.466 107.821 124.553 107.594 112.744C107.367 100.936 107.095 89.0994 106.777 77.2357C90.8832 77.5334 75.0575 78.0185 59.3 78.6911C43.5822 79.3692 35.272 81.1388 19.6393 84C19.6393 95.136 19.9061 106.162 20.4397 117.077C20.9733 127.993 21.7907 138.914 22.8919 149.841C22.8834 150.328 22.8436 150.814 22.7727 151.296C22.7348 151.555 22.6114 151.795 22.421 151.98C22.2306 152.165 21.9835 152.285 21.7169 152.321C21.2571 152.47 20.9165 152.321 20.6781 151.759C20.4497 151.236 20.3338 150.673 20.3375 150.105C19.2023 139.895 18.4246 129.752 18.0046 119.674C17.5845 109.596 17.1985 99.3589 16.8466 88.9616L15.4502 48.3756C15.4267 47.9121 15.508 47.4492 15.6886 47.0195L16.1484 46.5729C16.6082 46.4241 16.9998 46.5729 17.3064 47.251C17.5846 47.7334 17.7475 48.2704 17.7832 48.8222C18.0897 54.2248 18.3565 59.6385 18.5835 65.0632C18.8106 70.4879 19.0831 75.896 19.4009 81.2876C35.1869 78.5918 43.6333 76.8553 59.4192 76.111C75.2051 75.3668 91.0591 74.8376 107.1 74.4572C106.777 69.6444 106.556 64.8482 106.402 60.0354C106.249 55.2227 106.079 50.4099 105.925 45.5971C105.889 45.2811 105.974 44.963 106.164 44.704C106.315 44.5552 106.495 44.4375 106.694 44.358C106.893 44.2784 107.107 44.2386 107.322 44.241C107.537 44.2367 107.751 44.2756 107.951 44.3552C108.15 44.4349 108.33 44.5537 108.48 44.704C108.858 45.3938 109.023 46.1746 108.957 46.9533C109.263 63.3487 109.609 79.507 109.995 95.4282C110.381 111.349 110.728 127.436 111.034 143.688L110.949 146.004Z" fill="#EB4141"/>
<path d="M221.545 104.97C217.004 95.0473 212.668 85.0469 208.535 74.9693C204.403 64.8917 200.072 54.8968 195.542 44.9846L182.072 45.4477C177.576 45.5965 173.098 45.6627 168.602 45.6627C165.957 52.8736 163.289 59.9797 160.598 66.9811C157.908 73.9825 155.234 81.0831 152.578 88.2829C148.718 98.9449 144.983 109.579 141.373 120.186C137.762 130.793 133.931 141.267 129.878 151.61C132.671 153.418 135.509 155.259 138.393 157.134C141.253 159.019 144.08 160.772 146.907 162.426C149.34 159.944 151.126 156.933 152.118 153.644C153.128 150.336 154.264 147.028 155.524 143.721C156.29 141.157 157.227 138.61 158.197 136.047C159.168 133.483 160.173 130.936 161.092 128.389C169.083 129.133 177.129 129.133 185.12 128.389C193.187 127.633 201.306 127.556 209.387 128.158C211.555 132.965 213.684 137.739 215.773 142.48C217.867 147.21 219.979 151.99 222.158 156.786C225.258 154.989 228.272 153.148 231.201 151.262C234.13 149.377 237.15 147.613 240.26 145.97C237.218 139.068 234.113 132.237 230.945 125.478C227.778 118.72 224.645 111.884 221.545 104.97Z" fill="#EB4141"/>
<path d="M246.958 34.4003C245.865 34.506 244.802 34.8089 243.824 35.2934C243.035 35.7126 242.222 36.088 241.389 36.418C242.615 39.4068 243.545 42.5026 244.165 45.6631C244.778 48.8275 245.555 51.9864 246.498 55.1398L254.842 54.2302L263.203 53.3371C262.897 63.2603 262.511 73.1063 262.045 82.8752C261.58 92.644 261.131 102.507 260.7 112.463C260.393 117.976 260.161 123.538 260.002 129.15C259.847 134.727 259.386 140.292 258.622 145.821C256.284 146.285 254.013 146.836 251.811 147.475C249.687 148.05 247.71 149.047 246.004 150.403C247.717 153.134 249.192 156 250.414 158.97C251.663 161.98 252.827 164.99 253.905 168C261.067 166.059 268.355 164.59 275.72 163.601C283.072 162.606 290.361 161.209 297.551 159.416C297.54 156.178 297.346 152.942 296.972 149.725C296.586 146.417 296.16 143.186 295.695 140.033C293.055 140.182 290.586 140.364 288.032 140.595C285.529 140.831 283.047 141.246 280.607 141.836C281.22 126.951 281.912 112.182 282.684 97.5285C283.456 82.8752 284.098 68.0069 284.609 52.9236C288.954 52.9182 293.297 52.6974 297.619 52.2621C297.619 48.9543 297.619 45.6466 297.857 42.5539C298.096 39.4611 298.079 36.1699 298.079 32.8622C289.564 32.5645 281.016 32.4542 272.433 32.5314C263.907 32.5752 255.394 33.1997 246.958 34.4003Z" fill="#EB4141"/>
<path d="M363.197 108.692C360.824 105.772 357.863 103.352 354.495 101.58C350.769 99.3457 346.561 97.976 342.2 97.5781C337.848 97.201 333.462 97.4631 329.19 98.3554C329.373 97.7681 329.493 97.164 329.548 96.5527C329.593 95.9415 329.708 95.337 329.888 94.75C334.193 93.8667 338.192 91.9248 341.502 89.1103C344.837 86.3548 347.526 82.9372 349.387 79.0878C351.247 75.2443 352.201 71.0464 352.179 66.7996C352.226 62.5142 351.047 58.3003 348.774 54.6271C346.718 51.6117 343.913 49.1487 340.617 47.4658C337.439 45.8144 333.975 44.7436 330.399 44.3069C323.022 43.4483 315.541 44.4626 308.687 47.2508C308.263 47.6904 307.94 48.2129 307.741 48.7833C307.541 49.3537 307.469 49.9589 307.529 50.5586C307.683 51.7558 307.683 52.9668 307.529 54.164C308.006 59.5722 308.227 64.9969 308.227 70.405V86.9437C308.227 97.9695 308.579 108.946 309.283 119.872C309.987 130.799 310.719 141.825 311.48 152.95C311.485 153.815 311.565 154.678 311.718 155.53C311.87 156.5 312.139 157.449 312.519 158.358C312.881 159.204 313.469 159.94 314.222 160.491C315.07 161.049 316.111 161.257 317.117 161.07C322.342 161.071 327.554 160.578 332.681 159.598C337.797 158.617 342.839 157.296 347.769 155.646C351.833 154.27 355.636 152.252 359.025 149.675C362.46 147.107 365.274 143.838 367.267 140.099C368.832 136.718 369.739 133.084 369.941 129.382C370.177 125.647 369.704 121.902 368.544 118.334C367.385 114.829 365.573 111.561 363.197 108.692Z" fill="#EB4141"/>
<path d="M264.285 24.0965L264.575 23.6996L263.587 15.6949L263.485 15.1822L261.799 2.59627L261.356 2.16626L252.637 2.51357L252.297 2.57973L241.279 3.15858L240.836 3.58859L243.271 25.8L243.901 26.2135L264.285 24.0965Z" fill="#EB4141"/>
<path d="M297.922 23.9811L298.262 23.6338L298.484 15.5629L298.467 15.0502L298.705 2.36503L298.331 1.86887L289.646 0.975783L289.305 0.992322L278.322 0L277.811 0.363851L276.874 22.6746L277.419 23.1707L297.922 23.9811Z" fill="#EB4141"/>
</svg>
