<svg width="37" height="37" viewBox="0 0 37 37" fill="none" xmlns="http://www.w3.org/2000/svg">
<path d="M18.4993 11.0893C14.3982 11.0893 11.0884 14.3991 11.0884 18.5001C11.0884 22.6012 14.3982 25.911 18.4993 25.911C22.6004 25.911 25.9101 22.6012 25.9101 18.5001C25.9101 14.3991 22.6004 11.0893 18.4993 11.0893ZM18.4993 23.3166C15.8471 23.3166 13.6828 21.1523 13.6828 18.5001C13.6828 15.848 15.8471 13.6836 18.4993 13.6836C21.1514 13.6836 23.3158 15.848 23.3158 18.5001C23.3158 21.1523 21.1514 23.3166 18.4993 23.3166ZM26.2137 9.05862C25.2561 9.05862 24.4829 9.83186 24.4829 10.7894C24.4829 11.7469 25.2561 12.5201 26.2137 12.5201C27.1712 12.5201 27.9444 11.7505 27.9444 10.7894C27.9447 10.562 27.9001 10.3368 27.8132 10.1267C27.7264 9.9166 27.5989 9.72569 27.4381 9.56491C27.2773 9.40414 27.0864 9.27666 26.8763 9.18979C26.6662 9.10291 26.441 9.05833 26.2137 9.05862ZM32.9452 18.5001C32.9452 16.5056 32.9633 14.5291 32.8513 12.5382C32.7392 10.2257 32.2117 8.17337 30.5207 6.48235C28.8261 4.78772 26.7773 4.26379 24.4648 4.15178C22.4703 4.03977 20.4938 4.05784 18.5029 4.05784C16.5084 4.05784 14.5319 4.03977 12.541 4.15178C10.2285 4.26379 8.17614 4.79133 6.48513 6.48235C4.7905 8.17698 4.26657 10.2257 4.15456 12.5382C4.04255 14.5327 4.06061 16.5092 4.06061 18.5001C4.06061 20.491 4.04255 22.4711 4.15456 24.462C4.26657 26.7745 4.79411 28.8269 6.48513 30.5179C8.17976 32.2125 10.2285 32.7365 12.541 32.8485C14.5355 32.9605 16.512 32.9424 18.5029 32.9424C20.4974 32.9424 22.4739 32.9605 24.4648 32.8485C26.7773 32.7365 28.8297 32.2089 30.5207 30.5179C32.2153 28.8233 32.7392 26.7745 32.8513 24.462C32.9669 22.4711 32.9452 20.4947 32.9452 18.5001ZM29.7655 27.0202C29.5017 27.6779 29.1838 28.1693 28.6743 28.6751C28.1648 29.1846 27.677 29.5026 27.0194 29.7663C25.1188 30.5215 20.6058 30.3517 18.4993 30.3517C16.3927 30.3517 11.8761 30.5215 9.97556 29.77C9.31794 29.5062 8.82653 29.1882 8.32067 28.6787C7.8112 28.1693 7.49323 27.6815 7.22946 27.0239C6.4779 25.1197 6.64773 20.6067 6.64773 18.5001C6.64773 16.3936 6.4779 11.877 7.22946 9.97639C7.49323 9.31878 7.8112 8.82737 8.32067 8.32151C8.83015 7.81565 9.31794 7.49407 9.97556 7.2303C11.8761 6.47874 16.3927 6.64856 18.4993 6.64856C20.6058 6.64856 25.1224 6.47874 27.023 7.2303C27.6806 7.49407 28.1721 7.81204 28.6779 8.32151C29.1874 8.83098 29.5054 9.31878 29.7691 9.97639C30.5207 11.877 30.3509 16.3936 30.3509 18.5001C30.3509 20.6067 30.5207 25.1197 29.7655 27.0202Z" fill="#29B3A9"/>
</svg>
